grf
version=1
nRows=12
nColumns=37
inDegrees=no
endheader
time	ground_force_1_vx	ground_force_1_vy	ground_force_1_vz	ground_force_1_px	ground_force_1_py	ground_force_1_pz	ground_moment_1_mx	ground_moment_1_my	ground_moment_1_mz	ground_force_2_vx	ground_force_2_vy	ground_force_2_vz	ground_force_2_px	ground_force_2_py	ground_force_2_pz	ground_moment_2_mx	ground_moment_2_my	ground_moment_2_mz	ground_force_3_vx	ground_force_3_vy	ground_force_3_vz	ground_force_3_px	ground_force_3_py	ground_force_3_pz	ground_moment_3_mx	ground_moment_3_my	ground_moment_3_mz	ground_force_4_vx	ground_force_4_vy	ground_force_4_vz	ground_force_4_px	ground_force_4_py	ground_force_4_pz	ground_moment_4_mx	ground_moment_4_my	ground_moment_4_mz
      5.90000000	      0.00000000	     -0.00000000	      0.00000000	      0.00000000	      0.00000000	      0.00000000	      0.00000000	      0.00000000	      0.00000000	      7.08889675	     29.55228806	   -346.28854370	   -424.53759211	  -1028.83065101	      0.00000000	     -0.00000000	      0.00000000	   1294.96899632	    -17.48074129	    -41.23684540	   -598.61120605	   -356.56858483	   -728.40743350	      0.00000000	      0.00000000	     -0.00000000	  -2000.93385579	      0.00000000	     -0.00000000	      0.00000000	      0.00000000	      0.00000000	      0.00000000	      0.00000000	      0.00000000	      0.00000000
      5.91000000	      0.00000000	     -0.00000000	      0.00000000	      0.00000000	      0.00000000	      0.00000000	      0.00000000	      0.00000000	      0.00000000	      7.58092356	     29.68042374	   -352.11257935	   -423.31976746	  -1030.09928155	      0.00000000	      0.00000000	      0.00000000	   1350.02200387	    -17.17668512	    -41.15346758	   -590.74700928	   -356.04777157	   -728.19080782	      0.00000000	      0.00000000	     -0.00000000	  -2001.92986708	      0.00000000	     -0.00000000	      0.00000000	      0.00000000	      0.00000000	      0.00000000	      0.00000000	      0.00000000	      0.00000000
      5.92000000	      0.00000000	     -0.00000000	      0.00000000	      0.00000000	      0.00000000	      0.00000000	      0.00000000	      0.00000000	      0.00000000	      7.17721462	     30.20844078	   -355.98529053	   -423.76315666	  -1029.72447986	      0.00000000	      0.00000000	      0.00000000	   1183.94499829	    -17.19734743	    -41.27581255	   -583.98083496	   -355.61615739	   -727.56296197	      0.00000000	      0.00000000	     -0.00000000	  -1863.18605938	      0.00000000	     -0.00000000	      0.00000000	      0.00000000	      0.00000000	      0.00000000	      0.00000000	      0.00000000	      0.00000000
      5.93000000	      0.00000000	     -0.00000000	      0.00000000	      0.00000000	      0.00000000	      0.00000000	      0.00000000	      0.00000000	      0.00000000	      7.54337978	     30.12898254	   -361.11209106	   -423.73386013	  -1029.53450217	      0.00000000	      0.00000000	      0.00000000	   1160.31838781	    -17.15567378	    -41.28449481	   -576.23590088	   -355.76173635	   -727.68409400	      0.00000000	      0.00000000	     -0.00000000	  -1773.21834253	      0.00000000	     -0.00000000	      0.00000000	      0.00000000	      0.00000000	      0.00000000	      0.00000000	      0.00000000	      0.00000000
      5.94000000	      0.00000000	     -0.00000000	      0.00000000	      0.00000000	      0.00000000	      0.00000000	      0.00000000	      0.00000000	      0.00000000	      7.53769016	     30.92824936	   -366.07339478	   -424.13658630	  -1028.96764735	      0.00000000	     -0.00000000	      0.00000000	   1187.47448214	    -16.94745235	    -41.45418019	   -570.69561768	   -356.28066881	   -727.83483398	      0.00000000	      0.00000000	      0.00000000	  -1695.58330823	      0.00000000	     -0.00000000	      0.00000000	      0.00000000	      0.00000000	      0.00000000	      0.00000000	      0.00000000	      0.00000000
      5.95000000	      0.00000000	     -0.00000000	      0.00000000	      0.00000000	      0.00000000	      0.00000000	      0.00000000	      0.00000000	      0.00000000	      8.61116123	     31.55122375	   -372.40408325	   -423.57520292	  -1028.81798365	      0.00000000	      0.00000000	      0.00000000	   1360.02842842	    -16.90112474	    -41.15106816	   -564.24249268	   -356.30397599	   -728.34948384	      0.00000000	      0.00000000	     -0.00000000	  -1653.92513947	      0.00000000	     -0.00000000	      0.00000000	      0.00000000	      0.00000000	      0.00000000	      0.00000000	      0.00000000	      0.00000000
      5.96000000	      0.00000000	     -0.00000000	      0.00000000	      0.00000000	      0.00000000	      0.00000000	      0.00000000	      0.00000000	      0.00000000	      8.87545204	     32.48902512	   -378.42575073	   -423.03571499	  -1029.87508378	      0.00000000	      0.00000000	      0.00000000	   1081.76295828	    -16.32278800	    -40.92923975	   -559.12280273	   -356.72173589	   -728.32928020	      0.00000000	      0.00000000	     -0.00000000	  -1627.13370781	      0.00000000	     -0.00000000	      0.00000000	      0.00000000	      0.00000000	      0.00000000	      0.00000000	      0.00000000	      0.00000000
      5.97000000	      0.00000000	     -0.00000000	      0.00000000	      0.00000000	      0.00000000	      0.00000000	      0.00000000	      0.00000000	      0.00000000	      9.67789173	     33.37871552	   -384.44210815	   -423.19637728	  -1030.37575431	      0.00000000	      0.00000000	      0.00000000	   1098.91215979	    -15.61019012	    -40.48824555	   -554.10363770	   -357.11162575	   -728.47116922	      0.00000000	      0.00000000	     -0.00000000	  -1666.06207331	      0.00000000	     -0.00000000	      0.00000000	      0.00000000	      0.00000000	      0.00000000	      0.00000000	      0.00000000	      0.00000000
      5.98000000	      0.00000000	     -0.00000000	      0.00000000	      0.00000000	      0.00000000	      0.00000000	      0.00000000	      0.00000000	      0.00000000	      9.32208443	     34.62807465	   -388.49731445	   -422.63777262	  -1030.92742469	      0.00000000	      0.00000000	      0.00000000	    954.70204954	    -15.35229753	    -40.75382861	   -550.06213379	   -358.28532909	   -729.23373381	      0.00000000	      0.00000000	     -0.00000000	  -1671.20752269	      0.00000000	     -0.00000000	      0.00000000	      0.00000000	      0.00000000	      0.00000000	      0.00000000	      0.00000000	      0.00000000
      5.99000000	      0.00000000	     -0.00000000	      0.00000000	      0.00000000	      0.00000000	      0.00000000	      0.00000000	      0.00000000	      0.00000000	     10.03622818	     34.49365234	   -391.67761230	   -421.37851284	  -1030.61780988	      0.00000000	     -0.00000000	      0.00000000	    760.53876600	    -14.63246509	    -40.49909082	   -547.98870850	   -359.02874482	   -729.16732895	      0.00000000	      0.00000000	     -0.00000000	  -1691.25239872	      0.00000000	     -0.00000000	      0.00000000	      0.00000000	      0.00000000	      0.00000000	      0.00000000	      0.00000000	      0.00000000
      6.00000000	      0.00000000	     -0.00000000	      0.00000000	      0.00000000	      0.00000000	      0.00000000	      0.00000000	      0.00000000	      0.00000000	     10.21515465	     34.44945145	   -393.26513672	   -421.60688944	  -1031.14567542	      0.00000000	      0.00000000	      0.00000000	    638.93034390	    -14.28243992	    -40.63435239	   -546.57586670	   -360.20270447	   -729.23556142	      0.00000000	      0.00000000	     -0.00000000	  -1580.28780710	      0.00000000	     -0.00000000	      0.00000000	      0.00000000	      0.00000000	      0.00000000	      0.00000000	      0.00000000	      0.00000000
      6.01000000	      0.00000000	     -0.00000000	      0.00000000	      0.00000000	      0.00000000	      0.00000000	      0.00000000	      0.00000000	      0.00000000	      9.45813274	     34.89606857	   -393.96862793	   -420.07979448	  -1032.16625720	      0.00000000	      0.00000000	      0.00000000	    491.56624577	    -13.83698914	    -40.58664964	   -546.42224121	   -361.07654692	   -729.31744207	      0.00000000	      0.00000000	     -0.00000000	  -1675.64552693	      0.00000000	     -0.00000000	      0.00000000	      0.00000000	      0.00000000	      0.00000000	      0.00000000	      0.00000000	      0.00000000
